<?xml version="1.0" encoding="UTF-8" standalone="no"?>
<!-- Created with Inkscape (http://www.inkscape.org/) -->

<svg
   version="1.1"
   id="svg44"
   width="260"
   height="245"
   viewBox="0 0 260 245"
   sodipodi:docname="new logo.svg"
   inkscape:version="1.1 (c68e22c387, 2021-05-23)"
   xmlns:inkscape="http://www.inkscape.org/namespaces/inkscape"
   xmlns:sodipodi="http://sodipodi.sourceforge.net/DTD/sodipodi-0.dtd"
   xmlns="http://www.w3.org/2000/svg"
   xmlns:svg="http://www.w3.org/2000/svg">
  <defs
     id="defs48" />
  <sodipodi:namedview
     id="namedview46"
     pagecolor="#ffffff"
     bordercolor="#666666"
     borderopacity="1.0"
     inkscape:pageshadow="2"
     inkscape:pageopacity="0.0"
     inkscape:pagecheckerboard="0"
     showgrid="false"
     inkscape:zoom="4.3465422"
     inkscape:cx="116.06928"
     inkscape:cy="130.79362"
     inkscape:window-width="1920"
     inkscape:window-height="1017"
     inkscape:window-x="-8"
     inkscape:window-y="-8"
     inkscape:window-maximized="1"
     inkscape:current-layer="g50" />
  <g
     inkscape:groupmode="layer"
     inkscape:label="Image"
     id="g50">
    <path
       style="fill:#ffff00;stroke-width:0.64452"
       d="m 115.56976,211.2289 c -1.78951,-0.94597 -4.86421,-2.64462 -6.83267,-3.77477 -1.96846,-1.13015 -5.40919,-3.07462 -7.64608,-4.32105 -2.236881,-1.24643 -5.635771,-3.20322 -7.553091,-4.34844 -1.91732,-1.14522 -3.56277,-2.08221 -3.65655,-2.08221 -0.0938,0 -1.65,-0.87849 -3.45825,-1.95219 -1.80825,-1.07371 -3.35223,-1.95219 -3.43106,-1.95219 -0.0788,0 -1.56596,-0.84489 -3.304722,-1.87753 -1.73877,-1.03264 -3.82026,-2.22827 -4.62554,-2.65696 -0.80528,-0.42868 -2.59886,-1.50128 -3.98572,-2.38355 l -2.52159,-1.60412 V 136.98314 89.690389 l 1.05744,-0.801194 c 1.29092,-0.978096 7.44931,-4.555298 30.661683,-17.810335 21.20579,-12.109207 19.33144,-11.47511 24.66874,-8.345562 1.75485,1.028968 3.25041,1.87085 3.32345,1.87085 0.073,0 1.1995,0.637029 2.50325,1.415619 4.2251,2.523223 14.47703,8.413781 21.72966,12.48544 4.05656,2.277368 14.76261,8.49674 16.16623,9.391302 0.92811,0.591508 1.8432,1.36645 2.03353,1.72209 0.39938,0.74625 0.4942,56.910311 0.097,57.487961 -0.3396,0.49395 -5.61771,3.64672 -14.43517,8.62255 -4.18184,2.35987 -12.2886,6.95499 -18.01502,10.21138 -16.03739,9.11983 -17.56234,9.93857 -18.51117,9.93857 -0.94097,0 -3.30966,-1.08768 -6.92787,-3.18121 -1.21935,-0.70553 -4.1936,-2.42326 -6.60944,-3.81718 -2.41583,-1.39392 -4.64865,-2.75484 -4.96181,-3.02428 -0.53423,-0.45963 -0.56939,-2.25369 -0.56939,-29.05595 v -28.56608 l 1.3828,-0.9355 c 0.76054,-0.51452 4.768,-2.86419 8.90547,-5.22148 8.78838,-5.007111 8.68787,-4.983421 12.44723,-2.933541 4.19901,2.289591 8.45296,4.869361 8.88213,5.386491 0.62677,0.75522 -0.66435,1.7144 -8.00955,5.95032 -3.71495,2.14238 -7.14265,4.36752 -8.0193,5.20585 l -1.5311,1.46414 -0.22327,7.32072 c -0.1228,4.02639 -0.0918,12.97848 0.0688,19.89354 0.24726,10.64421 0.372,12.69482 0.8132,13.36818 0.66993,1.02245 3.70864,2.02215 5.20392,1.71204 1.44398,-0.29947 5.87142,-2.67163 18.96082,-10.15895 15.45739,-8.84184 17.06326,-9.84398 17.33897,-10.82036 0.31011,-1.09822 0.29677,-39.300161 -0.0141,-40.409051 -0.30632,-1.09261 -0.16537,-1.00675 -24.48289,-14.914222 -11.9654,-6.84315 -12.33268,-6.963958 -15.94289,-5.243879 -1.91495,0.912376 -26.558721,14.945021 -31.168031,17.747691 l -2.34458,1.42561 -0.25607,2.71862 c -0.14084,1.495241 -0.21405,19.293791 -0.16269,39.552331 0.0923,36.39335 0.10117,36.83971 0.74412,37.33597 0.3579,0.27625 8.11786,4.7693 17.244361,9.98455 9.12649,5.21525 16.98226,9.75395 17.45726,10.08601 1.709,1.19467 -1.2529,2.7492 43.06066,-22.6 12.52656,-7.16572 23.88879,-13.6578 25.2494,-14.42686 l 2.47383,-1.39828 0.20812,-2.20369 c 0.27342,-2.89519 0.27214,-68.337904 -0.001,-73.702135 l -0.21155,-4.147824 -3.44749,-2.017836 c -1.89626,-1.109808 -4.91178,-2.844486 -6.70129,-3.85484 -1.78951,-1.01035 -4.86421,-2.761231 -6.83267,-3.890843 -1.96846,-1.129613 -4.38429,-2.494211 -5.36852,-3.032437 -0.98423,-0.538229 -2.81441,-1.591049 -4.06707,-2.339606 -2.43991,-1.45803 -8.0737,-4.689437 -10.73705,-6.158513 -2.38504,-1.31556 -22.47135,-12.765243 -24.56507,-14.002684 -0.98423,-0.581702 -3.09147,-1.697281 -4.68275,-2.479063 l -2.89323,-1.421422 -2.80066,1.493893 c -3.26464,1.741386 -55.710183,31.661066 -61.894303,35.310105 l -4.18988,2.47231 -4.6e-4,6.711214 c -0.001,20.926051 -0.38919,86.863921 -0.51451,87.483131 -0.0815,0.40264 -0.34056,0.73208 -0.57571,0.73208 -0.81222,0 -10.0183,-5.14723 -12.01337,-6.71682 l -0.88666,-0.69755 V 118.15912 70.456456 l 2.19622,-1.402701 c 1.20792,-0.771483 8.05279,-4.745754 15.21082,-8.83171 7.15804,-4.085956 14.03951,-8.041523 15.29217,-8.790148 1.25265,-0.748624 3.10011,-1.809135 4.10547,-2.356691 1.00535,-0.547556 4.37288,-2.452357 7.4834,-4.232891 3.110512,-1.780534 6.314352,-3.607342 7.119632,-4.059574 0.80528,-0.452232 2.85508,-1.629486 4.55511,-2.616121 6.76758,-3.927646 23.537011,-13.261684 25.145501,-13.996245 2.48154,-1.133266 3.02869,-0.935678 12.59686,4.549016 3.13164,1.795128 15.43044,8.825723 27.33068,15.623544 11.90023,6.79782 26.68808,15.247934 32.86188,18.778033 6.17381,3.530095 11.51793,6.70292 11.87583,7.050719 0.64408,0.625902 0.65155,1.113484 0.7308,47.720003 0.0631,37.08627 -0.006,47.25227 -0.32536,47.86275 -0.3459,0.66128 -5.93255,4.0601 -16.34833,9.94601 -3.39456,1.91824 -15.61275,8.9148 -18.22045,10.43365 -1.61056,0.93806 -9.07769,5.2177 -16.59363,9.5103 -28.51697,16.28699 -30.44888,17.33366 -31.95991,17.31538 -0.49609,-0.006 -2.36612,-0.7849 -4.15563,-1.73088 z"
       id="path1092" />
  </g>
</svg>
